<svg width="360" height="96" viewBox="0 0 360 96" fill="none" xmlns="http://www.w3.org/2000/svg">
  <rect width="96" height="96" rx="22" fill="#030706"/>
  <rect x="1" y="1" width="94" height="94" rx="21" stroke="url(#border)" stroke-opacity="0.8" stroke-width="2"/>
  <path d="M48 16C30.327 16 16 30.327 16 48C16 65.673 30.327 80 48 80" stroke="#17352E" stroke-width="7" stroke-linecap="round"/>
  <path d="M48 16C65.673 16 80 30.327 80 48C80 65.673 65.673 80 48 80" stroke="url(#arc)" stroke-width="7" stroke-linecap="round"/>
  <path d="M35 61.5L48 30.5L61 61.5" stroke="#F7FAF8" stroke-width="8" stroke-linecap="round" stroke-linejoin="round"/>
  <path d="M40.5 51.5H55.5" stroke="#00E88A" stroke-width="6" stroke-linecap="round"/>
  <circle cx="72" cy="24" r="5" fill="#00E88A"/>
  <text x="120" y="59" fill="#F7FAF8" font-family="Manrope, Segoe UI, Arial, sans-serif" font-size="36" font-weight="760" letter-spacing="-0.6">alphast</text>
  <text x="258" y="59" fill="#00E88A" font-family="Manrope, Segoe UI, Arial, sans-serif" font-size="36" font-weight="760" letter-spacing="-0.6">.xyz</text>
  <defs>
    <linearGradient id="arc" x1="48" y1="16" x2="77" y2="72" gradientUnits="userSpaceOnUse">
      <stop stop-color="#00E88A"/>
      <stop offset="1" stop-color="#00B7FF"/>
    </linearGradient>
    <linearGradient id="border" x1="0" y1="0" x2="96" y2="96" gradientUnits="userSpaceOnUse">
      <stop stop-color="#00E88A" stop-opacity="0.5"/>
      <stop offset="0.5" stop-color="#16312B" stop-opacity="0.4"/>
      <stop offset="1" stop-color="#00B7FF" stop-opacity="0.45"/>
    </linearGradient>
  </defs>
</svg>
